<mxfile host="65bd71144e" modified="2020-11-05T12:04:49.694Z" agent="5.0 (Macintosh; Intel Mac OS X 10_15_7) AppleWebKit/537.36 (KHTML, like Gecko) Code/1.50.1 Chrome/83.0.4103.122 Electron/9.2.1 Safari/537.36" version="13.6.5" etag="HXzsq7WsQlAzTp6DC9KC">
    <diagram id="VKgvEtRixFQoJ_rf31b8" name="第 1 页">
        <mxGraphModel dx="1139" dy="557" grid="1" gridSize="10" guides="1" tooltips="1" connect="1" arrows="1" fold="1" page="1" pageScale="1" pageWidth="827" pageHeight="1169" background="#DAD2D8" math="0" shadow="0">
            <root>
                <mxCell id="0"/>
                <mxCell id="1" parent="0"/>
                <mxCell id="3" value="" style="strokeColor=#666666;html=1;verticalLabelPosition=bottom;labelBackgroundColor=#ffffff;verticalAlign=top;outlineConnect=0;shadow=0;dashed=0;shape=mxgraph.rackGeneral.container;container=1;collapsible=0;childLayout=rack;allowGaps=1;marginLeft=33;marginRight=9;marginTop=21;marginBottom=22;textColor=#666666;numDisp=ascend;rounded=0;sketch=0;fillColor=#FAE5C7;fontColor=#143642;" vertex="1" parent="1">
                    <mxGeometry x="240" y="100" width="260" height="340" as="geometry"/>
                </mxCell>
                <mxCell id="2" value="" style="strokeColor=#666666;html=1;labelPosition=right;align=left;spacingLeft=15;shadow=0;dashed=0;outlineConnect=0;shape=mxgraph.rack.dell.poweredge_r740;rounded=0;sketch=0;fillColor=#FAE5C7;fontColor=#143642;" vertex="1" parent="3">
                    <mxGeometry x="33" y="121" width="218" height="20" as="geometry"/>
                </mxCell>
                <mxCell id="4" value="" style="strokeColor=#666666;html=1;labelPosition=right;align=left;spacingLeft=15;shadow=0;dashed=0;outlineConnect=0;shape=mxgraph.rack.dell.poweredge_r740;rounded=0;sketch=0;fillColor=#FAE5C7;fontColor=#143642;" vertex="1" parent="3">
                    <mxGeometry x="33" y="141" width="218" height="20" as="geometry"/>
                </mxCell>
                <mxCell id="6" value="" style="strokeColor=#666666;html=1;labelPosition=right;align=left;spacingLeft=15;shadow=0;dashed=0;outlineConnect=0;shape=mxgraph.rack.dell.poweredge_r740;rounded=0;sketch=0;fillColor=#FAE5C7;fontColor=#143642;" vertex="1" parent="3">
                    <mxGeometry x="33" y="161" width="218" height="20" as="geometry"/>
                </mxCell>
                <mxCell id="7" value="" style="strokeColor=#666666;html=1;labelPosition=right;align=left;spacingLeft=15;shadow=0;dashed=0;outlineConnect=0;shape=mxgraph.rack.dell.poweredge_r740;rounded=0;sketch=0;fillColor=#FAE5C7;fontColor=#143642;" vertex="1" parent="3">
                    <mxGeometry x="33" y="181" width="218" height="20" as="geometry"/>
                </mxCell>
                <mxCell id="5" value="" style="strokeColor=#666666;html=1;labelPosition=right;align=left;spacingLeft=15;shadow=0;dashed=0;outlineConnect=0;shape=mxgraph.rack.general.switches_2;rounded=0;sketch=0;fillColor=#FAE5C7;fontColor=#143642;" vertex="1" parent="3">
                    <mxGeometry x="33" y="281" width="218" height="20" as="geometry"/>
                </mxCell>
            </root>
        </mxGraphModel>
    </diagram>
</mxfile>